<svg xmlns="http://www.w3.org/2000/svg" viewBox="0 0 229.95 341.9"><defs><style>.cls-1{fill:#ebb18b;}.cls-2,.cls-3{fill:none;stroke:#be1e2d;stroke-miterlimit:10;}.cls-2{stroke-width:3px;}.cls-3{stroke-width:1.9px;}.cls-4{fill:#435555;}.cls-5{fill:#4fddc5;}.cls-6{fill:#52dbdb;}</style></defs><title>2Монтажная область 32</title><g id="Слой_2" data-name="Слой 2"><path class="cls-1" d="M198,114.65c-10.54,11.83-21,20.46-28.67.33-.12-12-2.16-23-1.33-36.33,3.15-23.65,5.9-46.05,6-60.33-.08-4.58-10-7.42-11.33-1.67-4.77,21.58-8.7,41.81-10.71,59-.81,4.88-9.56,2.06-9.62-1C142.05,46.85,141.81,18.77,140,5c-.23-5.94-12.23-7.31-12.67,0-.17,27.78-.31,56-1.67,69.33-.27,2.73-3.18,2.32-3.33.67-1.92-19.29-4.52-39.69-7.67-61-.54-6.33-15.08-5.17-14.67,1.33,1.65,24.31,4,47,8,65.92.44,3.24-5.77,6.12-7.81,2.49C95,71.67,88,58,80,43.32,76.45,36.86,67,41.73,68.66,48L81.33,82C84.46,89.28,88,96.65,88,103.32c-.38,29.35,1.15,56.45,10.21,74.67a9.14,9.14,0,0,1,.41,1.34h55.71c.26-2.31,1.82-3.92,4.34-5,16.59-6.73,33-22.83,49.33-42.33,6.76-3.86,22-15.29,22-18.67C228.87,105.07,210.59,104.12,198,114.65Z"/><path class="cls-1" d="M98.61,179.32c1.14,4.7.78,14.52-.41,21-3.65,32.51-2.36,86.6-.87,141.54h28V179.32Z"/><path class="cls-2" d="M116.17,341.9c-1.56-15.79-8.65-49.17-1.34-81.29,6.6-29,5.75-66.36-4.27-81.29"/><path class="cls-3" d="M118.27,238.68c-1.86-6.38.66-10.3-10-20.06-6.94-6.37-3.56-15.53-2.33-26.33"/><path class="cls-3" d="M113.6,267.12c7.31-11.66,11.7-22.5,12.87-33.83"/><path class="cls-3" d="M114.16,320.45c-6,11.75-6.45,10.31-8.83,21.45"/><path class="cls-4" d="M125.31,341.9h8.61l-.5-68.33c.94-21.57,1.83-43.17-1.67-59.52-3.63-4.75-2.64-11.22-1.09-18.44,3.67-9,23.69-12,22.69,2.08-1.11,10.06-12,17.14-8.57,75.88l-.09,68.33h18l-6-142.25L154.33,181a6.72,6.72,0,0,1,0-1.66h-29Z"/><path class="cls-5" d="M153.35,197.69c1-14-19-11.11-22.69-2.08-1.56,7.22-2.54,13.69,1.09,18.44,3.5,16.35,2.61,37.94,1.67,59.52l.5,68.33h10.76l.09-68.33C141.32,214.83,152.23,207.75,153.35,197.69Z"/><path class="cls-6" d="M2.47,1.71H16.92V22h16.3V1.71H47.66v54.6H33.21V34.64H16.92V56.31H2.47Z"/><path class="cls-6" d="M32.46,115.72H17.17l-2.69,11.59H-.3l16.63-54.6H33.8l16.63,54.6H35.14Zm-2.6-11.17-.92-3.78q-1-3.95-2-8.57t-2-8.74h-.34q-.92,4.2-1.89,8.78t-2,8.53l-.92,3.78Z"/><path class="cls-6" d="M2.89,143.71H17.67l12.1,24.36L35,180.33h.34q-.25-2.18-.59-4.79t-.59-5.33q-.25-2.73-.46-5.46t-.21-5.25V143.71H47.24v54.6H32.46l-12.1-24.44-5.21-12.18h-.34q.5,4.71,1.18,10.25a88.22,88.22,0,0,1,.67,10.58v15.79H2.89Z"/><path class="cls-6" d="M4.15,214.71H20.28a40.43,40.43,0,0,1,11.38,1.51A22.81,22.81,0,0,1,40.52,221a21.92,21.92,0,0,1,5.75,8.4,33.14,33.14,0,0,1,2.06,12.35,34.41,34.41,0,0,1-2,12.43,22.38,22.38,0,0,1-5.67,8.57,22.87,22.87,0,0,1-8.65,5,35.58,35.58,0,0,1-10.88,1.6h-17Zm15.29,43A20.86,20.86,0,0,0,25,257a10.57,10.57,0,0,0,4.49-2.48,11.93,11.93,0,0,0,3-4.87,24.2,24.2,0,0,0,1.09-7.9,23.44,23.44,0,0,0-1.09-7.81,11.28,11.28,0,0,0-3-4.7A10.3,10.3,0,0,0,25,226.93a23.52,23.52,0,0,0-5.54-.63H18.6v31.42Z"/><path class="cls-6" d="M17.84,321.49,1.38,285.71H16.83l4,11.42q1,3.11,2,6l2.1,6.13h.34q1.09-3.19,2.14-6.13t2.14-6l4-11.42H48.75L32.29,321.49v18.82H17.84Z"/></g></svg>