<svg xmlns="http://www.w3.org/2000/svg" viewBox="0 0 103.73 219.61"><defs><style>.cls-1{fill:#ebb18b;}.cls-2,.cls-3{fill:none;stroke:#be1e2d;stroke-miterlimit:10;}.cls-2{stroke-width:1.93px;}.cls-3{stroke-width:1.22px;}.cls-4{fill:#435555;}.cls-5{fill:#4fddc5;}</style></defs><title>2Монтажная область 22</title><g id="Слой_2" data-name="Слой 2"><path class="cls-1" d="M83.2,73.64c-6.77,7.6-13.52,13.14-18.41.21-.08-7.71-1.38-14.77-.86-23.34,2-15.19,3.79-29.58,3.85-38.75-.05-2.94-6.4-4.76-7.28-1.07-3.06,13.86-5.59,26.85-6.88,37.87-.52,3.13-6.14,1.32-6.18-.62-.18-17.85-.33-35.89-1.5-44.75-.15-3.81-7.86-4.7-8.14,0-.11,17.84-.2,35.95-1.07,44.53-.17,1.75-2,1.49-2.14.43C33.37,35.77,31.7,22.67,29.68,9c-.35-4.07-9.69-3.32-9.42.86,1.06,15.61,2.56,30.2,5.15,42.34.28,2.08-3.71,3.93-5,1.6-3.36-7.75-7.81-16.51-13-26-2.27-4.15-8.38-1-7.28,3L8.27,52.66c2,4.69,4.29,9.42,4.28,13.7-.24,18.85.74,36.26,6.56,48a5.87,5.87,0,0,1,.26.86H55.15A4,4,0,0,1,57.94,112c10.65-4.32,21.19-14.66,31.69-27.19,4.34-2.48,14.1-9.82,14.1-12C103,67.49,91.3,66.88,83.2,73.64Z"/><path class="cls-1" d="M19.37,115.18c.73,3,.5,9.33-.26,13.51-2.34,20.88-1.51,55.63-.56,90.92h18V115.18Z"/><path class="cls-2" d="M30.65,219.61c-1-10.14-5.55-31.58-.86-52.21C34,148.75,33.48,124.77,27,115.18"/><path class="cls-3" d="M32,153.31c-1.2-4.1.42-6.62-6.4-12.88-4.46-4.09-2.29-10-1.5-16.91"/><path class="cls-3" d="M29,171.58c4.7-7.49,7.52-14.45,8.27-21.73"/><path class="cls-3" d="M29.36,205.83c-3.85,7.55-4.14,6.62-5.67,13.78"/><path class="cls-4" d="M36.52,219.61H42l-.32-43.89c.6-13.86,1.17-27.73-1.07-38.23-2.33-3-1.7-7.21-.7-11.85,2.36-5.8,15.21-7.68,14.57,1.34-.72,6.46-7.72,11-5.51,48.74L49,219.61H60.5l-3.84-91.37-1.5-12a4.32,4.32,0,0,1,0-1.07H36.52Z"/><path class="cls-5" d="M54.52,127c.64-9-12.21-7.14-14.57-1.34-1,4.64-1.63,8.8.7,11.85,2.25,10.5,1.68,24.37,1.07,38.23L42,219.61H49L49,175.72C46.8,138,53.81,133.44,54.52,127Z"/></g></svg>