<svg xmlns="http://www.w3.org/2000/svg" viewBox="0 0 440.26 377.67"><defs><style>.cls-1{fill:#5c7fc6;}.cls-2{fill:#29518c;}.cls-3{fill:#99b9ff;}.cls-4{fill:#a5a5a5;}.cls-17,.cls-19,.cls-5,.cls-6{fill:none;stroke-miterlimit:10;}.cls-17,.cls-5{stroke:#000;}.cls-5{stroke-width:1px;}.cls-6{stroke:#1c1c1c;}.cls-17,.cls-19,.cls-6{stroke-width:0.98px;}.cls-7{fill:#111;}.cls-8{fill:#6d6d6d;}.cls-9{fill:#ddd42c;}.cls-10{fill:#2d2d2d;}.cls-11{fill:#f7d48f;}.cls-12{fill:#4c4c4c;}.cls-13{fill:#666;}.cls-14{fill:#898989;}.cls-15{fill:#ddbb7f;}.cls-16{fill:#d1d1d1;}.cls-18{fill:#6381b7;}.cls-19{stroke:#2d2d2d;}.cls-20{fill:#81a2fc;}.cls-21{fill:#191919;}.cls-22{fill:#efe23f;}.cls-23{fill:#6e8ed6;}</style></defs><title>2Монтажная область 42</title><g id="Слой_2" data-name="Слой 2"><polygon class="cls-1" points="384.76 377.67 440.26 303.17 82.26 253.81 4.15 314.81 384.76 377.67"/><polygon class="cls-2" points="396.23 362.26 31.27 305.17 82.46 262.29 432.13 314.07 396.23 362.26"/><polygon class="cls-3" points="143.34 239.35 139.01 243.03 143.66 243.69 146.04 239.74 143.34 239.35"/><path class="cls-4" d="M220.92,18.37C253.32,83.3,258,148,232.87,235.33l39.38,5.33C297.74,154.9,292,54.17,256.11,14.2,245.46,3.36,233.81,3.87,220.92,18.37Z"/><line class="cls-5" x1="263.79" y1="72.66" x2="253.7" y2="126.51"/><path class="cls-6" d="M265.8,129.24c.32-44.69-7-91.32-33.51-120.25"/><path class="cls-7" d="M202.3,222.79l-2,50.26c5.63-.26,6.32,9.84,4.78,24.62l-3.44,3.5v14.57c-.94-6.4-3.29-9.79-8.2-7.74v-6.5l4.36-5.17-3.24-66.58Z"/><path class="cls-6" d="M235.26,6.7c24.6,23.77,34,69.72,34,123.32"/><path class="cls-8" d="M241.59,1.67c40.12,3.3,69,125,30.67,254v-15C298.08,152.49,284.95,12.6,241.59,6.59"/><polygon class="cls-9" points="187.29 236.94 218.22 210.47 198.37 207.26 183.64 219.42 187.29 236.94"/><polygon class="cls-10" points="256.14 252.05 254.53 286.81 265.25 288.46 266.64 252.18 256.14 252.05"/><path class="cls-11" d="M398.76,240.67,30.93,183.57C22.71,154,32,110.13,50.14,80.33l348.62,78.33Z"/><polygon class="cls-1" points="235.36 197.11 236.43 212.83 190.26 206.83 189.62 189.32 235.36 197.11"/><path class="cls-12" d="M216,206l2.11-4.7c-2.79-4.72-7.1-5.68-11.89-3.91l-2.37,5.31Z"/><ellipse class="cls-13" cx="210.13" cy="203.79" rx="4.62" ry="6.38" transform="translate(-27.29 375.01) rotate(-79.92)"/><path class="cls-14" d="M207.13,201.79l-19.21,28.42,1.7,9.25,25-34.92Q212.38,200.42,207.13,201.79Z"/><path class="cls-15" d="M381.76,198.67c0-22.09,6.94-40,15.5-40s15.5,17.91,15.5,40-6.94,42-15.5,42S381.76,220.76,381.76,198.67Z"/><path class="cls-8" d="M241.59,6.59q-.7,0-1.41,0C191.9,13.83,161.87,175.72,202.93,285v8C140.4,169.4,192.38-5.74,241.59,1.67"/><path class="cls-16" d="M202.93,293l-45-4.54C109.23,199.46,142.93,0,193.59,0l48,1.67C178.93,1.45,158.26,209.67,202.93,293Z"/><polygon class="cls-16" points="232.88 235.33 231.64 250 272.26 255.67 272.26 240.67 232.88 235.33"/><path class="cls-1" d="M257.48,133s3.88-3.79,6.46-4.52L217.28,118c-1.93.28-5.58,4.43-5.58,4.43Z"/><polygon class="cls-1" points="208.76 125.82 253.7 135.33 247.76 144.83 200.27 136.89 208.76 125.82"/><polygon class="cls-1" points="245.38 150.09 239.96 168.33 192.09 160 198.42 141.32 245.38 150.09"/><polygon class="cls-1" points="238.94 174.29 235.84 191.8 189.62 184.8 191.09 166.33 238.94 174.29"/><path class="cls-12" d="M211.69,157.22l5.64,3.27c4.32-1.22,7.55-3.5,7.58-8.88a36.87,36.87,0,0,0-5.42-4"/><ellipse class="cls-13" cx="214.9" cy="151.94" rx="6.34" ry="4.77" transform="translate(-45.56 189.76) rotate(-43.52)"/><path class="cls-12" d="M218.56,130v5.75c5.83,3.53,7.9,3.53,13.74,0V130"/><ellipse class="cls-13" cx="225.43" cy="130.42" rx="6.87" ry="4.59"/><path class="cls-14" d="M234.18,120,245,65.25c2.89-.89,5.29.05,7.25,2.67l-9.74,53.71A22.24,22.24,0,0,1,234.18,120Z"/><path class="cls-14" d="M185.16,131.66,213,154.83c2.91-1.08,3.71-2.13,4-5l-30.75-29Z"/><path class="cls-14" d="M222.26,130.42a6.37,6.37,0,0,0,6,0l3-114.92c-1.78-2-3.56-1.55-5.33,0Z"/><path class="cls-12" d="M231.76,119.42l-.5,4.27a22.5,22.5,0,0,0,12.67,2.65l.92-4.42A84.16,84.16,0,0,1,231.76,119.42Z"/><path class="cls-12" d="M215.34,185.44H210q7.5-6.37,0-12.75h4.21C217.66,176.22,218.67,180.32,215.34,185.44Z"/><path class="cls-13" d="M206.13,180.67c0-3.52,1.79-8,3.86-8s3.75,2.85,3.75,6.38-1.68,6.38-3.75,6.38S206.13,184.19,206.13,180.67Z"/><path class="cls-14" d="M183.91,182.68l26.46.64c1.16-2.13,1.44-4.73-.5-8.5l-26.23-.36Z"/><line class="cls-17" x1="240.26" y1="14.16" x2="236.26" y2="133.33"/><line class="cls-17" x1="207.28" y1="39.68" x2="224.01" y2="146.5"/><line class="cls-17" x1="183.64" y1="162.17" x2="216.01" y2="167.33"/><line class="cls-17" x1="185.16" y1="202.96" x2="211.58" y2="190.42"/><line class="cls-17" x1="193.4" y1="253.82" x2="216.68" y2="212.83"/><polygon class="cls-18" points="192.68 242.39 187.76 248.17 185.16 248.17 190.4 241.52 192.68 242.39"/><path class="cls-19" d="M213,.67c-52.26,39-64.65,153.82-45.26,247"/><path class="cls-19" d="M163.76,246.92C144.26,137.68,157.26,39.16,207.28.67"/><polygon class="cls-20" points="145.51 268.03 139.01 243.03 187.76 248.17 194.51 273.82 145.51 268.03"/><path class="cls-19" d="M173.51,271a54.54,54.54,0,0,0,9.5,20"/><path class="cls-10" d="M155.7,339.84l5.39-81.34c4-4.17,8.54-3.39,13.42,0L168.9,342Z"/><path class="cls-19" d="M171.41,277.26c1.57,5.85,3.48,10.64,6.2,12.85"/><path class="cls-21" d="M201.59,315.74,182.76,333c-.84-7.47-5.8-7.43-13-3.2L193.4,308C198.41,306.06,200.74,309.43,201.59,315.74Z"/><path class="cls-10" d="M182.76,333v11.31L168.9,342l.82-12.22C175.92,325.33,182,325.31,182.76,333Z"/><path class="cls-21" d="M259.63,280.15l-7.37,11.39a25.91,25.91,0,0,1,.34-16l3.34-3.55C259,271.83,260.06,274.78,259.63,280.15Z"/><path class="cls-7" d="M245.63,267.54l-1.25,24c2.49,2.64,5.11,2.69,7.88,0l.56-26-3.68-5.17,1.88-24.2c4.45-1.44,5.18-8.8,5.13-17.41l-7.74-1.2L248,230.42C240.34,233.17,239.22,265.09,245.63,267.54Z"/><path class="cls-9" d="M304.27,226.23l-14,11.46c9.35-2.71,13.14.52,11.11,10L323,229.14Z"/><path class="cls-10" d="M282.22,360.73l.69-16.8c4.61-2.94,8.9-3.19,12.58,2l-.91,16.81Z"/><path class="cls-21" d="M313.59,331l-18.11,15-12.58-2,20.85-18.27C308.35,321.77,311.75,323,313.59,331Z"/><circle class="cls-22" cx="294.93" cy="243.67" r="7.58"/><path class="cls-7" d="M313.59,331V316.83l3.17-4.33c1.82-13.6.36-22.18-5.5-24V238.15l-7,7-1,44c7.86,4.29,7.83,16.17,2.17,26.57v8.87Z"/><path class="cls-21" d="M364.38,306.92l6.19-10.54c-.59-9.86-2.28-12.28-6.19-5.46A29,29,0,0,0,364.38,306.92Z"/><path class="cls-7" d="M357.38,234.48v10.94c-7.81,11-8.51,23.13-.87,36.75v24.75c2.35,3.47,5,2.86,7.88,0V280.29c-6.65-11-6.35-22.17,0-33.37V235.56Z"/><polygon points="370.57 296.38 370.57 304.62 366.13 303.94 370.57 296.38"/><polygon class="cls-23" points="192.68 242.39 197.6 269.26 194.51 273.82 187.76 248.17 192.68 242.39"/></g></svg>