<svg xmlns="http://www.w3.org/2000/svg" viewBox="0 0 440.26 376.23"><defs><style>.cls-1{fill:#5c7fc6;}.cls-2{fill:#29518c;}.cls-3{fill:#99b9ff;}.cls-4{fill:#a5a5a5;}.cls-16,.cls-18,.cls-25,.cls-5{fill:none;stroke-miterlimit:10;}.cls-5{stroke:#1c1c1c;}.cls-16,.cls-18,.cls-5{stroke-width:0.98px;}.cls-6{fill:#7c7c7c;}.cls-7{fill:#6d6d6d;}.cls-8{fill:#ddd42c;}.cls-9{fill:#fff;}.cls-10{fill:#f7d48f;}.cls-11{fill:#4c4c4c;}.cls-12{fill:#666;}.cls-13{fill:#898989;}.cls-14{fill:#ddbb7f;}.cls-15{fill:#d1d1d1;}.cls-16,.cls-25{stroke:red;}.cls-17{fill:#6381b7;}.cls-18{stroke:#2d2d2d;}.cls-19{fill:#81a2fc;}.cls-20{fill:#afafaf;}.cls-21{fill:#efe23f;}.cls-22{fill:#6e8ed6;}.cls-23{fill:#eaf42a;}.cls-24{fill:#2af3ff;}.cls-25{stroke-width:1px;}</style></defs><title>2Монтажная область 42</title><g id="Слой_2" data-name="Слой 2"><polygon class="cls-1" points="384.76 376.23 440.26 301.73 82.26 252.38 4.15 313.38 384.76 376.23"/><polygon class="cls-2" points="396.23 360.83 31.27 303.73 82.46 260.85 432.13 312.63 396.23 360.83"/><polygon class="cls-3" points="143.34 237.91 139.01 241.59 143.66 242.25 146.04 238.3 143.34 237.91"/><path class="cls-4" d="M220.92,16.93c32.39,64.92,37.05,129.63,11.95,217l39.38,5.33C297.74,153.46,292,52.73,256.11,12.76,245.46,1.92,233.81,2.43,220.92,16.93Z"/><path class="cls-5" d="M265.8,127.8c.32-44.69-7-91.32-33.51-120.25"/><path class="cls-6" d="M202.3,221.35l-2,50.26c5.63-.26,6.32,9.84,4.78,24.62l-3.44,3.5V314.3c-.94-6.4-3.29-9.79-8.2-7.74v-6.5l4.36-5.17-3.24-66.58Z"/><path class="cls-5" d="M235.26,5.26c24.6,23.77,34,69.72,34,123.32"/><path class="cls-7" d="M241.59.23c40.12,3.3,69,125,30.67,254v-15c25.82-88.18,12.7-228-30.65-234"/><polygon class="cls-8" points="187.29 235.5 218.22 209.03 198.37 205.83 183.64 217.98 187.29 235.5"/><polygon class="cls-9" points="256.14 250.61 254.53 285.37 265.25 287.02 266.64 250.74 256.14 250.61"/><path class="cls-10" d="M398.76,239.23,58.55,187.51a15.27,15.27,0,0,1-12-9.73c-8.42-22.28-14.35-56.62-2.17-87.15a15.18,15.18,0,0,1,17.44-9.11l336.91,75.7Z"/><polygon class="cls-1" points="235.36 195.68 236.43 211.39 190.26 205.39 189.62 187.88 235.36 195.68"/><path class="cls-11" d="M216,204.54l2.11-4.7c-2.79-4.72-7.1-5.68-11.89-3.91l-2.37,5.31Z"/><ellipse class="cls-12" cx="210.13" cy="202.35" rx="4.62" ry="6.38" transform="translate(-25.88 373.82) rotate(-79.92)"/><path class="cls-13" d="M207.13,200.35l-19.21,28.42,1.7,9.25,25-34.92Q212.38,199,207.13,200.35Z"/><path class="cls-14" d="M381.76,197.23c0-22.09,6.94-40,15.5-40s15.5,17.91,15.5,40-6.94,42-15.5,42S381.76,219.32,381.76,197.23Z"/><polygon class="cls-15" points="232.88 233.89 231.64 248.56 272.26 254.23 272.26 239.23 232.88 233.89"/><path class="cls-1" d="M257.48,131.56s3.88-3.79,6.46-4.52L217.28,116.6c-1.93.28-5.58,4.43-5.58,4.43Z"/><polygon class="cls-1" points="208.76 124.38 253.7 133.89 247.76 143.39 200.27 135.45 208.76 124.38"/><polygon class="cls-1" points="245.38 148.66 239.96 166.89 192.09 158.56 198.42 139.88 245.38 148.66"/><polygon class="cls-1" points="238.94 172.85 235.84 190.36 189.62 183.36 191.09 164.89 238.94 172.85"/><path class="cls-11" d="M211.69,155.78l5.64,3.27c4.32-1.22,7.55-3.5,7.58-8.88a36.87,36.87,0,0,0-5.42-4"/><ellipse class="cls-12" cx="214.9" cy="150.5" rx="6.34" ry="4.77" transform="translate(-44.57 189.36) rotate(-43.52)"/><path class="cls-11" d="M218.56,128.58v5.75c5.83,3.53,7.9,3.53,13.74,0v-5.75"/><ellipse class="cls-12" cx="225.43" cy="128.98" rx="6.87" ry="4.59"/><line class="cls-16" x1="207.28" y1="38.24" x2="224.01" y2="145.06"/><path class="cls-13" d="M234.18,118.61,245,63.81c2.89-.89,5.29.05,7.25,2.67l-9.74,53.71A22.24,22.24,0,0,1,234.18,118.61Z"/><path class="cls-7" d="M241.9,5.29c-.47,0-1.16,0-1.64,0-48.28,7.24-78.39,169-37.33,278.28v8C140.4,168,192.38-7.18,241.59.23"/><path class="cls-13" d="M185.16,130.22,213,153.39c2.91-1.08,3.71-2.13,4-5l-30.75-29Z"/><path class="cls-15" d="M202.93,291.56l-45-4.54C109.23,198,143,0,193.63,0l48,.23C178.93,0,158.26,208.23,202.93,291.56Z"/><path class="cls-13" d="M222.26,129a6.37,6.37,0,0,0,6,0l3-114.92c-1.78-2-3.56-1.55-5.33,0Z"/><path class="cls-11" d="M231.76,118l-.5,4.27a22.5,22.5,0,0,0,12.67,2.65l.92-4.42A84.16,84.16,0,0,1,231.76,118Z"/><path class="cls-11" d="M215.34,184H210q7.5-6.37,0-12.75h4.21C217.66,174.78,218.67,178.88,215.34,184Z"/><path class="cls-12" d="M206.13,179.23c0-3.52,1.79-8,3.86-8s3.75,2.85,3.75,6.38S212.07,184,210,184,206.13,182.75,206.13,179.23Z"/><path class="cls-13" d="M183.91,181.24l26.46.64c1.16-2.13,1.44-4.73-.5-8.5L183.64,173Z"/><line class="cls-16" x1="240.26" y1="12.72" x2="236.26" y2="131.89"/><line class="cls-16" x1="183.64" y1="160.73" x2="216.01" y2="165.89"/><line class="cls-16" x1="185.16" y1="201.53" x2="211.58" y2="188.98"/><line class="cls-16" x1="193.4" y1="252.38" x2="216.68" y2="211.39"/><polygon class="cls-17" points="192.68 240.96 187.76 246.73 185.16 246.73 190.4 240.08 192.68 240.96"/><path class="cls-18" d="M213-.76c-52.26,39-64.65,153.82-45.26,247"/><path class="cls-18" d="M163.76,245.48c-19.5-109.23-6.5-207.75,43.52-246.24"/><path class="cls-18" d="M171.41,275.82c1.57,5.85,3.48,10.64,6.2,12.85"/><polygon class="cls-19" points="145.51 266.59 139.01 241.59 187.76 246.73 194.51 272.38 145.51 266.59"/><path class="cls-18" d="M173.51,269.61a54.54,54.54,0,0,0,9.5,20"/><path class="cls-9" d="M155.7,338.4l5.39-81.34c4-4.17,8.54-3.39,13.42,0l-5.62,83.52Z"/><path class="cls-20" d="M201.59,314.3l-18.83,17.26c-.84-7.47-5.8-7.43-13-3.2l23.68-21.8C198.41,304.62,200.74,308,201.59,314.3Z"/><path class="cls-15" d="M182.76,331.56v11.31l-13.86-2.29.82-12.22C175.92,323.89,182,323.87,182.76,331.56Z"/><path class="cls-20" d="M259.63,278.71l-7.37,11.39a25.91,25.91,0,0,1,.34-16l3.34-3.55C259,270.39,260.06,273.34,259.63,278.71Z"/><path class="cls-6" d="M245.63,266.1l-1.25,24c2.49,2.64,5.11,2.69,7.88,0l.56-26-3.68-5.17,1.88-24.2c4.45-1.44,5.18-8.8,5.13-17.41l-7.74-1.2L248,229C240.34,231.73,239.22,263.65,245.63,266.1Z"/><path class="cls-8" d="M304.27,224.79l-14,11.46c9.35-2.71,13.14.52,11.11,10L323,227.7Z"/><path class="cls-15" d="M282.22,359.29l.69-16.8c4.61-2.94,8.9-3.19,12.58,2l-.91,16.81Z"/><path class="cls-20" d="M313.59,329.56l-18.11,15-12.58-2,20.85-18.27C308.35,320.34,311.75,321.58,313.59,329.56Z"/><circle class="cls-21" cx="294.93" cy="242.23" r="7.58"/><path class="cls-6" d="M313.59,329.56V315.39l3.17-4.33c1.82-13.6.36-22.18-5.5-24V236.71l-7,7-1,44c7.86,4.29,7.83,16.17,2.17,26.57v8.87Z"/><path class="cls-20" d="M364.38,305.48l6.19-10.54c-.59-9.86-2.28-12.28-6.19-5.46A29,29,0,0,0,364.38,305.48Z"/><path class="cls-6" d="M357.38,233V244c-7.81,11-8.51,23.13-.87,36.75v24.75c2.35,3.47,5,2.86,7.88,0V278.85c-6.65-11-6.35-22.17,0-33.37V234.12Z"/><polygon class="cls-15" points="370.57 294.94 370.57 303.19 366.13 302.5 370.57 294.94"/><polygon class="cls-22" points="192.68 240.96 197.6 267.82 194.51 272.38 187.76 246.73 192.68 240.96"/><circle class="cls-23" cx="266.2" cy="94.75" r="1.12"/><circle class="cls-23" cx="250.18" cy="30.52" r="1.12"/><circle class="cls-24" cx="267.32" cy="112.9" r="1.12"/><circle class="cls-24" cx="258.74" cy="52.9" r="1.12"/><line class="cls-25" x1="263.79" y1="71.22" x2="253.7" y2="125.07"/></g></svg>