<svg xmlns="http://www.w3.org/2000/svg" viewBox="0 0 553.94 227.14"><defs><style>.cls-1{fill:#263faa;}.cls-1,.cls-2{stroke:#b6f4fc;}.cls-1,.cls-18,.cls-19,.cls-2,.cls-3,.cls-4{stroke-miterlimit:10;}.cls-1,.cls-18{stroke-width:0.93px;}.cls-2{fill:none;}.cls-19,.cls-2{stroke-width:0.23px;}.cls-3{fill:#5c7fc6;stroke:#182c44;}.cls-4{fill:#92b6ea;stroke:#1c3249;}.cls-5{fill:#dfd4c8;}.cls-6{fill:#a89f98;}.cls-7{fill:#29518c;}.cls-8{fill:#262420;}.cls-9{fill:#1c1916;}.cls-10{fill:#7c742e;}.cls-11{fill:#b5ab2c;}.cls-12{fill:#ddd42c;}.cls-13{fill:#494137;}.cls-14{fill:#a5a5a5;}.cls-15{fill:#d1d1d1;}.cls-16{fill:#89847c;}.cls-17{fill:#898989;}.cls-18,.cls-19{fill:#1b75bc;stroke:#b8d3f4;}</style></defs><title>2Монтажная область 32</title><g id="Слой_2" data-name="Слой 2"><polygon class="cls-1" points="190.97 177.87 185.65 158.66 211.11 158.66 216.42 177.87 190.97 177.87"/><line class="cls-2" x1="198.25" y1="158.54" x2="203.82" y2="178"/><line class="cls-2" x1="188.31" y1="168.15" x2="213.76" y2="168.15"/><polygon class="cls-1" points="165.97 177.87 160.65 158.66 186.11 158.66 191.42 177.87 165.97 177.87"/><line class="cls-2" x1="173.25" y1="158.54" x2="178.82" y2="178"/><line class="cls-2" x1="163.31" y1="168.15" x2="188.76" y2="168.15"/><polygon class="cls-1" points="140.47 177.87 135.15 158.66 160.61 158.66 165.92 177.87 140.47 177.87"/><line class="cls-2" x1="147.76" y1="158.54" x2="153.32" y2="178"/><line class="cls-2" x1="137.81" y1="168.15" x2="163.26" y2="168.15"/><polygon class="cls-1" points="115.03 177.87 109.71 158.66 135.16 158.66 140.48 177.87 115.03 177.87"/><line class="cls-2" x1="122.31" y1="158.54" x2="127.87" y2="178"/><line class="cls-2" x1="112.37" y1="168.15" x2="137.82" y2="168.15"/><path class="cls-3" d="M512.45,86.09c0-2.2-2.54-4-5.64-4h-386a7.73,7.73,0,0,0-.77.06c-1.62,0-3.24-.06-4.87-.06H81.86c-44.46,0-80.5,23-80.5,51.33s36,51.33,80.5,51.33h33.32l2.44,0,.39,0H548.07c3.1,0,5.64-1.8,5.64-4Z"/><path class="cls-3" d="M524.69,86.09c-.73-2.29-1.8-4-4-4H247.1a3.92,3.92,0,0,0-.55.06c-1.15,0-2.29-.06-3.45-.06-44.46,0-80.5,23-80.5,51.33s36,51.33,80.5,51.33l1.73,0,.27,0H549.94a4,4,0,0,0,4-4Z"/><polygon class="cls-4" points="237.27 227.1 81.86 227.09 81.86 184.76 237.27 184.76 237.27 227.1"/><path class="cls-4" d="M544.94,184.76H237.27V227.1H544.94q8.61.48,8.78-4.93l.22-41.42C553.94,184.76,548.95,184.44,544.94,184.76Z"/><path class="cls-4" d="M1.36,133.42v48.67c9.29,32.68,40.88,42.7,80.5,45V184.76C42.38,184.76,3.38,166.46,1.36,133.42Z"/><path class="cls-5" d="M7.44,151.78H484.77l-1.94-6.5H4.36A33,33,0,0,0,7.44,151.78Z"/><path class="cls-5" d="M7.31,114.95H473.65l-2.17-6.5H12.19A40.85,40.85,0,0,0,7.31,114.95Z"/><path class="cls-6" d="M6.14,149.49H484.08l-.57-1.92H5.26C5.71,148.6,5.68,148.53,6.14,149.49Z"/><path class="cls-6" d="M8.8,112.66H472.88l-.64-1.92h-462C9.34,111.82,9.76,111.34,8.8,112.66Z"/><path class="cls-7" d="M482.83,145.28l-9.18-30.33H7.31c-5.56,9.23-7.31,18-3,30.33Z"/><rect class="cls-8" x="84.51" y="142.07" width="14" height="7.42"/><rect class="cls-9" x="75.85" y="105.98" width="10.21" height="6.11"/><polyline class="cls-8" points="89.89 144.03 87.05 126.6 87.05 79.49 90.89 79.49 90.89 126.6 93.55 144.03 89.89 144.03"/><polyline class="cls-9" points="80.19 108.06 78.01 96.44 78.01 65.07 80.95 65.07 80.95 96.44 83 108.06 80.19 108.06"/><circle class="cls-10" cx="80.69" cy="60.78" r="5.83"/><circle class="cls-11" cx="84.77" cy="67.62" r="5.83"/><circle class="cls-12" cx="88.96" cy="74.7" r="5.83"/><rect class="cls-8" x="145.93" y="142.07" width="14" height="7.42"/><rect class="cls-9" x="137.28" y="105.98" width="10.21" height="6.11"/><polyline class="cls-8" points="151.31 144.03 148.48 126.6 148.48 79.49 152.31 79.49 152.31 126.6 154.98 144.03 151.31 144.03"/><polyline class="cls-9" points="141.61 108.06 139.43 96.44 139.43 65.07 142.38 65.07 142.38 96.44 144.43 108.06 141.61 108.06"/><circle class="cls-10" cx="142.11" cy="60.78" r="5.83"/><circle class="cls-11" cx="146.19" cy="67.62" r="5.83"/><circle class="cls-12" cx="150.38" cy="74.7" r="5.83"/><rect class="cls-8" x="210" y="142.07" width="14" height="7.42"/><rect class="cls-9" x="201.34" y="105.98" width="10.21" height="6.11"/><polyline class="cls-8" points="215.37 144.03 212.54 126.6 212.54 79.49 216.37 79.49 216.37 126.6 219.04 144.03 215.37 144.03"/><polyline class="cls-9" points="205.67 108.06 203.49 96.44 203.49 65.07 206.44 65.07 206.44 96.44 208.49 108.06 205.67 108.06"/><circle class="cls-10" cx="206.17" cy="60.78" r="5.83"/><circle class="cls-11" cx="210.26" cy="67.62" r="5.83"/><circle class="cls-12" cx="214.44" cy="74.7" r="5.83"/><rect class="cls-8" x="287.19" y="142.07" width="14" height="7.42"/><rect class="cls-9" x="278.54" y="105.98" width="10.21" height="6.11"/><polyline class="cls-8" points="292.57 144.03 289.74 126.6 289.74 79.49 293.57 79.49 293.57 126.6 296.24 144.03 292.57 144.03"/><polyline class="cls-9" points="282.87 108.06 280.69 96.44 280.69 65.07 283.64 65.07 283.64 96.44 285.69 108.06 282.87 108.06"/><circle class="cls-10" cx="283.37" cy="60.78" r="5.83"/><circle class="cls-11" cx="287.45" cy="67.62" r="5.83"/><circle class="cls-12" cx="291.64" cy="74.7" r="5.83"/><rect class="cls-8" x="367.93" y="142.07" width="14" height="7.42"/><rect class="cls-9" x="359.27" y="105.98" width="10.21" height="6.11"/><polyline class="cls-8" points="373.3 144.03 370.47 126.6 370.47 79.49 374.3 79.49 374.3 126.6 376.97 144.03 373.3 144.03"/><polyline class="cls-9" points="363.6 108.06 361.42 96.44 361.42 65.07 364.37 65.07 364.37 96.44 366.42 108.06 363.6 108.06"/><circle class="cls-10" cx="364.1" cy="60.78" r="5.83"/><circle class="cls-11" cx="368.19" cy="67.62" r="5.83"/><circle class="cls-12" cx="372.37" cy="74.7" r="5.83"/><rect class="cls-13" x="19.65" y="62.85" width="14.62" height="8.92"/><rect class="cls-13" x="23.65" y="69.88" width="6.62" height="41.82"/><path class="cls-14" d="M38.21.3H29.75c-10.54,0-15.94,37.64-6.12,66.32h6.65C24.28,33.74,23.19,15.21,38.21.3Z"/><path class="cls-15" d="M38.21,73.59h8.26C51.12,44.83,49,21,41.06,1.84,40.62.76,39.55.07,39.32.37H30.25C39.91,17.23,42.67,42.68,38.21,73.59Z"/><rect class="cls-16" x="32.74" y="73.59" width="17.75" height="10"/><rect class="cls-16" x="37.22" y="82.93" width="8.66" height="66.77"/><rect class="cls-13" x="165.31" y="62.85" width="14.62" height="8.92"/><rect class="cls-13" x="169.31" y="69.88" width="6.62" height="41.82"/><path class="cls-14" d="M183.87.3h-8.46c-10.54,0-15.94,37.64-6.12,66.32h6.65C169.94,33.74,168.85,15.21,183.87.3Z"/><path class="cls-15" d="M183.87,73.59h8.26c4.65-28.76,2.52-52.56-5.41-71.75C186.28.76,185.21.07,185,.37h-9.08C185.57,17.23,188.33,42.68,183.87,73.59Z"/><rect class="cls-16" x="178.4" y="73.59" width="17.75" height="10"/><rect class="cls-16" x="182.88" y="82.93" width="8.66" height="66.77"/><rect class="cls-13" x="233.97" y="62.85" width="14.62" height="8.92"/><rect class="cls-13" x="237.97" y="69.88" width="6.62" height="41.82"/><path class="cls-14" d="M252.54.3h-8.46c-10.54,0-15.94,37.64-6.12,66.32h6.65C238.61,33.74,237.52,15.21,252.54.3Z"/><path class="cls-15" d="M252.54,73.59h8.26c4.65-28.76,2.52-52.56-5.41-71.75C254.94.76,253.88.07,253.65.37h-9.08C254.24,17.23,257,42.68,252.54,73.59Z"/><rect class="cls-16" x="247.06" y="73.59" width="17.75" height="10"/><rect class="cls-16" x="251.55" y="82.93" width="8.66" height="66.77"/><rect class="cls-13" x="323.39" y="62.85" width="14.62" height="8.92"/><rect class="cls-13" x="327.39" y="69.88" width="6.62" height="41.82"/><path class="cls-14" d="M342,.3H333.5c-10.54,0-15.94,37.64-6.12,66.32H334C328,33.74,326.94,15.21,342,.3Z"/><path class="cls-15" d="M342,73.59h8.26c4.65-28.76,2.52-52.56-5.41-71.75C344.36.76,343.3.07,343.07.37H334C343.66,17.23,346.41,42.68,342,73.59Z"/><rect class="cls-16" x="336.48" y="73.59" width="17.75" height="10"/><rect class="cls-16" x="340.97" y="82.93" width="8.66" height="66.77"/><rect class="cls-13" x="378.14" y="62.55" width="14.62" height="8.92"/><rect class="cls-13" x="382.14" y="69.58" width="6.62" height="41.82"/><path class="cls-14" d="M396.71,0h-8.46c-10.54,0-15.94,37.64-6.12,66.32h6.65C382.78,33.45,381.69,14.91,396.71,0Z"/><path class="cls-15" d="M396.71,73.3H405c4.65-28.76,2.52-52.56-5.41-71.75C399.11.47,398-.22,397.82.07h-9.08C398.41,16.93,401.16,42.38,396.71,73.3Z"/><rect class="cls-16" x="391.23" y="73.3" width="17.75" height="10"/><rect class="cls-16" x="395.72" y="82.63" width="8.66" height="66.77"/><rect class="cls-13" x="443.68" y="62.55" width="14.62" height="8.92"/><rect class="cls-13" x="447.68" y="69.58" width="6.62" height="41.82"/><path class="cls-14" d="M462.25,0h-8.46c-10.54,0-15.94,37.64-6.12,66.32h6.65C448.32,33.45,447.23,14.91,462.25,0Z"/><path class="cls-15" d="M462.25,73.3h8.26c4.65-28.76,2.52-52.56-5.41-71.75-.45-1.08-1.51-1.77-1.74-1.48h-9.08C463.95,16.93,466.7,42.38,462.25,73.3Z"/><rect class="cls-16" x="456.77" y="73.3" width="17.75" height="10"/><rect class="cls-16" x="461.26" y="82.63" width="8.66" height="66.77"/><path class="cls-17" d="M447.61,29l16.55,10,.17,7.68L445,34.37C444.27,32.7,446.06,29,447.61,29Z"/><polygon class="cls-18" points="309.71 178.67 304.38 159.46 329.84 159.46 335.16 178.67 309.71 178.67"/><line class="cls-19" x1="316.99" y1="159.34" x2="322.55" y2="178.79"/><line class="cls-19" x1="307.05" y1="168.94" x2="332.5" y2="168.94"/><polygon class="cls-18" points="284.71 178.67 279.38 159.46 304.84 159.46 310.16 178.67 284.71 178.67"/><line class="cls-19" x1="291.99" y1="159.34" x2="297.55" y2="178.79"/><line class="cls-19" x1="282.05" y1="168.94" x2="307.5" y2="168.94"/><polygon class="cls-18" points="259.21 178.67 253.89 159.46 279.35 159.46 284.66 178.67 259.21 178.67"/><line class="cls-19" x1="266.49" y1="159.34" x2="272.05" y2="178.79"/><line class="cls-19" x1="256.55" y1="168.94" x2="282" y2="168.94"/><polygon class="cls-18" points="233.77 178.67 228.44 159.46 253.9 159.46 259.22 178.67 233.77 178.67"/><line class="cls-19" x1="241.05" y1="159.34" x2="246.61" y2="178.79"/><line class="cls-19" x1="231.11" y1="168.94" x2="256.55" y2="168.94"/><polygon class="cls-18" points="411.64 178.67 406.32 159.46 431.78 159.46 437.1 178.67 411.64 178.67"/><line class="cls-19" x1="418.93" y1="159.34" x2="424.49" y2="178.79"/><line class="cls-19" x1="408.99" y1="168.94" x2="434.43" y2="168.94"/><polygon class="cls-18" points="386.64 178.67 381.32 159.46 406.78 159.46 412.1 178.67 386.64 178.67"/><line class="cls-19" x1="393.93" y1="159.34" x2="399.49" y2="178.79"/><line class="cls-19" x1="383.99" y1="168.94" x2="409.43" y2="168.94"/><polygon class="cls-18" points="361.14 178.67 355.82 159.46 381.28 159.46 386.6 178.67 361.14 178.67"/><line class="cls-19" x1="368.43" y1="159.34" x2="373.99" y2="178.79"/><line class="cls-19" x1="358.49" y1="168.94" x2="383.93" y2="168.94"/><polygon class="cls-18" points="335.7 178.67 330.38 159.46 355.84 159.46 361.15 178.67 335.7 178.67"/><line class="cls-19" x1="342.99" y1="159.34" x2="348.55" y2="178.79"/><line class="cls-19" x1="333.04" y1="168.94" x2="358.49" y2="168.94"/><polygon class="cls-18" points="512.67 178.67 507.35 159.46 532.81 159.46 538.12 178.67 512.67 178.67"/><line class="cls-19" x1="519.96" y1="159.34" x2="525.52" y2="178.79"/><line class="cls-19" x1="510.01" y1="168.94" x2="535.46" y2="168.94"/><polygon class="cls-18" points="487.67 178.67 482.35 159.46 507.81 159.46 513.12 178.67 487.67 178.67"/><line class="cls-19" x1="494.96" y1="159.34" x2="500.52" y2="178.79"/><line class="cls-19" x1="485.01" y1="168.94" x2="510.46" y2="168.94"/><polygon class="cls-18" points="462.17 178.67 456.85 159.46 482.31 159.46 487.63 178.67 462.17 178.67"/><line class="cls-19" x1="469.46" y1="159.34" x2="475.02" y2="178.79"/><line class="cls-19" x1="459.51" y1="168.94" x2="484.96" y2="168.94"/><polygon class="cls-18" points="436.73 178.67 431.41 159.46 456.87 159.46 462.18 178.67 436.73 178.67"/><line class="cls-19" x1="444.01" y1="159.34" x2="449.58" y2="178.79"/><line class="cls-19" x1="434.07" y1="168.94" x2="459.52" y2="168.94"/><polygon class="cls-18" points="140.28 178.67 134.95 159.46 160.41 159.46 165.73 178.67 140.28 178.67"/><line class="cls-19" x1="147.56" y1="159.34" x2="153.12" y2="178.79"/><line class="cls-19" x1="137.62" y1="168.94" x2="163.06" y2="168.94"/><polygon class="cls-18" points="115.28 178.67 109.95 159.46 135.41 159.46 140.73 178.67 115.28 178.67"/><line class="cls-19" x1="122.56" y1="159.34" x2="128.12" y2="178.79"/><line class="cls-19" x1="112.62" y1="168.94" x2="138.06" y2="168.94"/><polygon class="cls-18" points="89.78 178.67 84.45 159.46 109.91 159.46 115.23 178.67 89.78 178.67"/><line class="cls-19" x1="97.06" y1="159.34" x2="102.62" y2="178.79"/><line class="cls-19" x1="87.12" y1="168.94" x2="112.57" y2="168.94"/><polygon class="cls-18" points="64.33 178.67 59.01 159.46 84.47 159.46 89.79 178.67 64.33 178.67"/><line class="cls-19" x1="71.62" y1="159.34" x2="77.18" y2="178.79"/><line class="cls-19" x1="61.68" y1="168.94" x2="87.12" y2="168.94"/></g></svg>